<?xml version="1.0" encoding="iso-8859-1"?>
<!-- Generator: Adobe Illustrator 19.0.0, SVG Export Plug-In . SVG Version: 6.00 Build 0)  -->
<svg version="1.1" id="Capa_1" xmlns="http://www.w3.org/2000/svg" xmlns:xlink="http://www.w3.org/1999/xlink" x="0px" y="0px"
	 viewBox="0 0 511.999 511.999" style="enable-background:new 0 0 511.999 511.999;" xml:space="preserve">
<path style="fill:#994C0F;" d="M487.64,487.358c-20.739,20.729-55.195,19.466-74.243-3.91L236.78,267.749l31.251-31.251
	L483.73,413.115C507.103,432.16,508.371,466.616,487.64,487.358z"/>
<g>
	<path style="fill:#FED42D;" d="M124.505,416.305c3.69,7.79,5.76,16.501,5.76,25.691c0,33.141-26.861,60.003-60.003,60.003
		S10.26,475.137,10.26,441.996c0-9.19,2.07-17.901,5.76-25.691l54.242-94.314L124.505,416.305z"/>
	<path style="fill:#FED42D;" d="M294.832,167.264c-11.66-11.661-30.511-11.721-42.242-0.18l-13.321,13.321v-0.01l13.131-13.131
		c0.06-0.06,0.12-0.12,0.19-0.18l21.031-21.031c11.713-11.734,11.701-30.711,0-42.432c-11.72-11.721-30.721-11.721-42.432,0
		c11.711-11.721,11.711-30.711,0-42.432c-11.721-11.711-30.711-11.711-42.432,0l-21.141,21.141
		c11.641-11.721,11.611-30.661-0.07-42.352c-11.721-11.721-30.711-11.721-42.432,0L103.904,61.19c5.86-5.85,8.79-13.531,8.79-21.211
		s-2.93-15.361-8.79-21.211c-11.721-11.721-30.711-11.721-42.432,0L19.05,61.19c-11.72,11.72-11.722,30.711,0,42.432
		c11.711,11.721,30.711,11.721,42.422,0l-21.211,21.211c-11.721,11.721-11.721,30.711,0,42.432
		c11.691,11.68,30.631,11.711,42.352,0.07l-21.141,21.141c-11.711,11.721-11.711,30.711,0,42.432
		c11.721,11.711,30.711,11.711,42.432,0c-11.743,11.743-11.698,30.734,0,42.432c11.721,11.71,30.711,11.71,42.432,0l21.031-21.031
		c0.06-0.07,0.12-0.13,0.18-0.19l19.131-19.131h0.01l-19.321,19.321c-11.535,11.717-11.484,30.577,0.18,42.242
		c11.711,11.71,30.711,11.71,42.432,0c18.819-18.819,66.94-66.94,84.854-84.854C306.527,198.001,306.553,178.986,294.832,167.264z"
		/>
</g>
<path d="M131.935,131.903c3.91-3.9,3.91-10.23,0-14.141c-3.9-3.9-10.23-3.9-14.141,0c-3.9,3.91-3.9,10.24,0,14.141
	C121.705,135.813,128.035,135.813,131.935,131.903z"/>
<path d="M29.937,121.133c-12.512,15.691-11.515,38.683,3.007,53.205c5.221,5.217,11.547,8.677,18.236,10.397
	c-12.536,15.691-11.55,38.709,2.974,53.245c8.086,8.079,19.192,12.323,30.797,11.598c-0.726,11.675,3.507,22.705,11.635,30.833
	c14.406,14.396,37.375,15.605,53.2,2.997c1.765,6.829,5.32,13.094,10.439,18.211c15.595,15.593,40.97,15.591,56.574,0l18.99-18.99
	l169.604,207.134c22.805,27.987,64.228,29.491,89.07,4.663c24.979-24.993,23.131-66.424-4.648-89.051L282.663,235.758l18.99-18.99
	c15.622-15.622,15.629-40.95,0-56.573c-5.215-5.215-11.546-8.678-18.242-10.398c12.401-15.485,11.784-38.468-2.969-53.246
	c-8.105-8.104-19.131-12.361-30.83-11.631c0.689-11.064-3.172-22.364-11.604-30.803c-14.531-14.518-37.546-15.502-53.239-2.967
	c-1.721-6.69-5.182-13.019-10.401-18.241c-14.519-14.519-37.511-15.514-53.201-3.004c-1.765-6.833-5.321-13.097-10.441-18.207
	c-15.599-15.597-40.977-15.597-56.574,0L11.727,54.119C-3.9,69.748-3.917,95.053,11.724,110.69
	C16.843,115.811,23.106,119.368,29.937,121.133z M477.164,420.868c18.785,15.304,19.648,42.918,3.157,59.417
	c-16.423,16.415-44.019,15.742-59.437-3.172L250.002,268.419l18.448-18.448L477.164,420.868z M287.511,174.337
	c7.806,7.806,7.808,20.48-0.001,28.288c-44.981,44.981-42.782,42.782-84.851,84.851c-7.803,7.797-20.495,7.8-28.292,0.003
	c-7.773-7.772-7.821-20.325-0.133-28.144l85.129-85.129C267.156,166.546,279.78,166.607,287.511,174.337z M238.014,110.69
	c7.826-7.832,20.481-7.801,28.279-0.003c7.807,7.819,7.823,20.466,0.006,28.295l-20.931,20.932
	c-0.097,0.093-0.194,0.185-0.289,0.279c-6.11,6.111-93.609,93.618-106.061,106.071c-7.802,7.793-20.495,7.796-28.293,0.003
	c-7.801-7.799-7.839-20.44-0.006-28.282c0.002-0.002,0.004-0.004,0.006-0.006L238.014,110.69z M131.935,47.05
	c7.799-7.797,20.49-7.799,28.287-0.004c7.768,7.775,7.79,20.442,0.049,28.236c-0.018,0.019-0.033,0.039-0.052,0.057l-14.139,14.144
	c-3.903,3.906-3.9,10.238,0.006,14.144c3.906,3.901,10.238,3.899,14.144-0.006l35.347-35.356c7.801-7.794,20.493-7.796,28.288-0.006
	c7.794,7.8,7.794,20.494,0.003,28.291L96.585,223.833c-7.802,7.795-20.494,7.795-28.288,0.006
	c-7.794-7.801-7.794-20.493-0.003-28.291c2.429-2.428-10.7,10.697,35.359-35.351c3.907-3.903,3.909-10.235,0.005-14.143
	c-3.903-3.908-10.236-3.908-14.143-0.006l-14.21,14.199c-7.794,7.732-20.454,7.706-28.223-0.053c-7.799-7.8-7.799-20.491,0-28.29
	l21.211-21.211l42.432-42.432L131.935,47.05z M25.871,68.261l42.422-42.422c7.8-7.801,20.444-7.843,28.295,0.006
	c7.805,7.79,7.817,20.452,0.01,28.256l-0.017,0.017L54.16,96.541c-0.003,0.003-0.007,0.006-0.01,0.009l-0.013,0.013
	c-7.704,7.699-20.354,7.904-28.266-0.013C18.054,88.733,18.047,76.083,25.871,68.261z"/>
<path d="M70.012,511.999c38.601,0,70.003-31.402,70.003-70.003c0-10.469-2.262-20.554-6.722-29.972
	c-0.114-0.24-0.237-0.476-0.369-0.705l-54.242-94.314c-1.784-3.103-5.091-5.015-8.669-5.015s-6.885,1.912-8.669,5.015L7.101,411.319
	c-0.132,0.229-0.255,0.465-0.369,0.705c-4.46,9.418-6.722,19.503-6.722,29.972C0.009,480.597,31.412,511.999,70.012,511.999z
	 M24.646,420.93l45.366-78.88l45.366,78.88c3.076,6.623,4.636,13.709,4.636,21.066c0,27.571-22.431,50.002-50.002,50.002
	S20.01,469.567,20.01,441.996C20.01,434.639,21.569,427.553,24.646,420.93z"/>
<g>
</g>
<g>
</g>
<g>
</g>
<g>
</g>
<g>
</g>
<g>
</g>
<g>
</g>
<g>
</g>
<g>
</g>
<g>
</g>
<g>
</g>
<g>
</g>
<g>
</g>
<g>
</g>
<g>
</g>
</svg>
