<svg id="Capa_1" enable-background="new 0 0 512 512" height="512" viewBox="0 0 512 512" width="512" xmlns="http://www.w3.org/2000/svg"><g><g><path clip-rule="evenodd" d="m185.81 422.146c6.601 1.304 12.494 4.167 17.395 8.107 22.212-3.997 43.46-14.598 60.628-31.776 28.246-28.261 26.121-51.391 38.134-74.776-10.228-5.924-17.14-17.007-17.14-29.706 0-18.935 15.355-34.27 34.281-34.27 14.76 0 27.339 9.354 32.156 22.45 18.982-6.661 38.474-9.638 61.308-32.484 44.735-44.786 44.791-117.323.142-162.137l-.142-.17c-9.916-9.893-21.163-17.603-33.147-23.13-5.015 19.303-22.552 33.561-43.431 33.561-22.07 0-40.428-15.959-44.14-36.991-15.157 5.556-29.351 14.4-41.505 26.56-36.462 36.509-22.325 64.458-53.319 95.468-11.956 11.962-23.486 17.206-35.215 21.231 4.646 6.009 7.423 13.521 7.423 21.684 0 19.559-15.837 35.404-35.385 35.404-15.469 0-28.614-9.921-33.431-23.754-13.684 14.116-23.033 30.897-28.048 48.613 5.071 5.669 8.159 13.152 8.159 21.344 0 9.921-4.505 18.765-11.559 24.632 2.521 19.53 10.029 38.522 22.551 54.934 5.043-4.025 10.794-7.115 16.97-9.071-2.295-6.86-2.21-14.598.85-21.798 6.601-15.675 24.676-23.017 40.343-16.384s23.005 24.717 16.375 40.393c-1.558 3.713-3.768 6.945-6.431 9.638 8.754 8.305 14.449 19.502 15.865 31.69 3.372-.197 6.857.03 10.313.738zm76.749-193.005c-12.296 0-22.297-9.978-22.297-22.308 0-12.302 10.001-22.28 22.297-22.28s22.268 9.978 22.268 22.28c0 12.33-9.973 22.308-22.268 22.308zm98.28-28.573c-12.324 0-22.297-9.978-22.297-22.28 0-12.33 9.973-22.308 22.297-22.308 12.296 0 22.268 9.978 22.268 22.308 0 12.302-9.972 22.28-22.268 22.28z" fill="#ffcd69" fill-rule="evenodd"/></g><g><path clip-rule="evenodd" d="m113.849 478.243c9.208 1.842 18.33 1.105 26.631-1.672 4.816 12.075 15.384 21.599 29.011 24.519h16.942c12.211-2.636 22.693-10.885 28.048-22.421 1.303-2.835 2.323-5.896 2.975-9.099 3.031-15.25-2.946-30.188-14.251-39.316-4.901-3.94-10.794-6.803-17.395-8.107-3.456-.709-6.941-.935-10.313-.737-1.417-12.189-7.111-23.385-15.865-31.69 2.663-2.693 4.873-5.924 6.431-9.638 6.629-15.675-.708-33.76-16.375-40.393s-33.742.709-40.343 16.384c-3.06 7.2-3.145 14.938-.85 21.798-6.176 1.956-11.927 5.046-16.97 9.071-9.151 7.342-15.894 17.858-18.359 30.302-5.61 28.089 12.607 55.386 40.683 60.999z" fill="#99ebfa" fill-rule="evenodd"/></g><g><path clip-rule="evenodd" d="m100.42 237.417c4.816 13.833 17.962 23.754 33.431 23.754 19.548 0 35.385-15.845 35.385-35.404 0-8.164-2.776-15.675-7.423-21.684-18.613 6.406-37.794 9.723-60.175 32.116-.425.396-.821.822-1.218 1.218z" fill="#ffe6b4" fill-rule="evenodd"/></g><g><path clip-rule="evenodd" d="m284.827 293.996c0 12.699 6.913 23.782 17.14 29.678 3.513-6.803 8.188-13.634 15.185-20.636 11.587-11.593 22.75-16.894 34.111-20.862-4.816-13.096-17.395-22.45-32.156-22.45-18.925 0-34.28 15.335-34.28 34.27z" fill="#ffe6b4" fill-rule="evenodd"/></g><g><path clip-rule="evenodd" d="m240.262 206.832c0 12.33 10.001 22.308 22.297 22.308s22.268-9.978 22.268-22.308c0-12.302-9.973-22.28-22.268-22.28-12.296.001-22.297 9.978-22.297 22.28z" fill="#ffe6b4" fill-rule="evenodd"/></g><g><path clip-rule="evenodd" d="m338.542 178.288c0 12.302 9.973 22.28 22.297 22.28 12.296 0 22.268-9.978 22.268-22.28 0-12.33-9.973-22.308-22.268-22.308-12.324 0-22.297 9.978-22.297 22.308z" fill="#ffe6b4" fill-rule="evenodd"/></g><g><path clip-rule="evenodd" d="m335.993 97.815c20.88 0 38.417-14.258 43.431-33.561-27.623-12.699-59.24-13.861-87.571-3.43 3.711 21.032 22.07 36.991 44.14 36.991z" fill="#ffe6b4" fill-rule="evenodd"/></g><g><path clip-rule="evenodd" d="m157.989 33.81c0 13.124 10.652 23.782 23.798 23.782 13.117 0 23.77-10.658 23.77-23.782 0-13.152-10.652-23.81-23.77-23.81-13.146 0-23.798 10.658-23.798 23.81z" fill="#99ebfa" fill-rule="evenodd"/></g><g><path clip-rule="evenodd" d="m61.635 118.536c0 16.412 13.287 29.735 29.691 29.735 16.432 0 29.719-13.322 29.719-29.735 0-16.412-13.287-29.735-29.719-29.735-16.404 0-29.691 13.322-29.691 29.735z" fill="#99ebfa" fill-rule="evenodd"/></g><g><path clip-rule="evenodd" d="m290.266 462.936c1.728 21.033 19.35 37.558 40.797 37.558 22.637 0 40.967-18.34 40.967-40.988 0-22.393-17.99-40.619-40.315-40.96-.198 0-.425 0-.652 0-22.608 0-40.938 18.34-40.938 40.96 0 1.162.028 2.324.141 3.43z" fill="#99ebfa" fill-rule="evenodd"/></g><g><path clip-rule="evenodd" d="m438.891 400.887c0 15.647 12.664 28.317 28.303 28.317 15.61 0 28.303-12.671 28.303-28.317 0-15.647-12.692-28.317-28.303-28.317-15.639 0-28.303 12.67-28.303 28.317z" fill="#99ebfa" fill-rule="evenodd"/></g><g><path clip-rule="evenodd" d="m364.834 350.715c30.994-31.01 58.929-16.837 95.391-53.347 44.791-44.815 44.791-117.465 0-162.279l-47.511-47.536c44.65 44.815 44.593 117.351-.142 162.137-22.835 22.847-42.327 25.823-61.308 32.484-11.361 3.968-22.523 9.269-34.111 20.862-6.998 7.001-11.672 13.833-15.185 20.664-12.012 23.385-9.888 46.515-38.134 74.776-17.169 17.177-38.417 27.779-60.628 31.776 11.304 9.127 17.282 24.066 14.251 39.316-.652 3.203-1.672 6.264-2.975 9.099 25.895 3.628 52.781-1.616 75.786-15.732-.113-1.105-.142-2.268-.142-3.43 0-22.62 18.33-40.96 40.938-40.96h.652c11.926-24.007 10.396-45.096 33.118-67.83z" fill="#ffe6b4" fill-rule="evenodd"/></g><g><path clip-rule="evenodd" d="m16.504 307.375c0 17.688 14.336 32.031 32.014 32.031 7.791 0 14.93-2.778 20.455-7.398 7.054-5.868 11.559-14.711 11.559-24.632 0-8.192-3.088-15.675-8.159-21.344-5.865-6.548-14.364-10.686-23.855-10.686-17.679-.002-32.014 14.341-32.014 32.029z" fill="#99ebfa" fill-rule="evenodd"/></g><g><path d="m360.839 210.568c17.793 0 32.268-14.481 32.268-32.28 0-17.815-14.475-32.308-32.268-32.308-17.808 0-32.296 14.493-32.296 32.308 0 17.799 14.488 32.28 32.296 32.28zm0-44.588c6.765 0 12.268 5.521 12.268 12.308 0 6.771-5.504 12.28-12.268 12.28-6.78 0-12.297-5.509-12.297-12.28 0-6.787 5.517-12.308 12.297-12.308z"/><path d="m230.885 343.749c-5.523 0-10 4.477-10 10s4.477 10 10 10h.057c5.523 0 9.972-4.477 9.972-10-.001-5.523-4.506-10-10.029-10z"/><path d="m203.46 272.657c-5.523 0-10 4.477-10 10s4.477 10 10 10h.057c5.523 0 9.972-4.477 9.972-10-.001-5.522-4.506-10-10.029-10z"/><path d="m290.805 151.637h.057c5.522 0 9.972-4.477 9.972-10s-4.506-10-10.028-10-10 4.477-10 10c-.001 5.523 4.477 10 9.999 10z"/><path d="m371.906 357.785c13.128-13.134 25.442-17.029 39.7-21.539 8.334-2.636 16.952-5.361 26.222-10.058 4.927-2.496 6.896-8.514 4.4-13.44-2.495-4.927-8.512-6.896-13.439-4.401-7.817 3.96-15.296 6.326-23.213 8.83-15.355 4.856-31.234 9.878-47.817 26.469-16.594 16.602-21.619 32.487-26.478 47.848-1.88 5.943-3.687 11.632-6.142 17.408-24.553 2.859-43.831 23.244-44.957 48.289-16.094 8.711-34.29 13.018-52.609 12.524 1.944-12.048-.583-23.87-6.404-33.69 18.662-6.021 35.636-16.37 49.737-30.478 20.696-20.707 26.577-39.298 31.764-55.7 4.514-14.268 8.412-26.591 21.554-39.74 13.142-13.15 25.46-17.049 39.723-21.565 16.398-5.191 34.983-11.075 55.697-31.782 30.988-31.005 42.22-74.401 33.708-114.393 26.24 26.4 36.539 65.121 26.876 101.133-1.432 5.334 1.732 10.819 7.066 12.25.868.233 1.74.344 2.598.344 4.414 0 8.454-2.945 9.652-7.411 11.535-42.985-.822-89.22-32.246-120.661l-47.635-47.688c-.007-.006-.013-.013-.019-.02-23.552-23.564-54.87-36.542-88.185-36.542s-64.633 12.977-88.188 36.544c-20.693 20.72-26.573 39.314-31.761 55.719-4.514 14.271-8.411 26.596-21.555 39.747-10.483 10.488-20.443 15.088-31.28 18.813-.163.054-.325.107-.486.169-2.593.883-5.236 1.721-7.95 2.581-16.395 5.191-34.977 11.075-55.674 31.783-.268.268-.525.546-.79.816-.346.308-.662.642-.96.991-10.846 11.299-19.467 24.539-25.394 38.921-5.687-2.88-12.107-4.513-18.905-4.513-23.167 0-42.014 18.855-42.014 42.031s18.847 42.031 42.014 42.031c4.603 0 9.03-.755 13.178-2.129 3.37 13.635 9.009 26.622 16.685 38.365-7.485 8.19-12.78 18.369-15.021 29.644-6.678 33.438 15.092 66.08 48.527 72.764 7.705 1.542 15.632 1.591 23.323.181 7.283 11.733 19.083 20.023 32.886 22.779 3.317.664 6.65.992 9.958.992 9.826 0 19.437-2.894 27.799-8.475 5.703-3.807 10.469-8.636 14.126-14.202 3.469.29 6.941.453 10.408.453 18.381 0 36.58-4.066 53.178-11.884 7.387 19.053 25.886 32.602 47.498 32.602 28.103 0 50.966-22.873 50.966-50.988 0-22.936-15.236-42.376-36.118-48.748 1.675-4.522 3.075-8.918 4.439-13.232 4.517-14.269 8.415-26.593 21.558-39.742zm-323.388-28.379c-12.139 0-22.014-9.883-22.014-22.031s9.875-22.031 22.014-22.031 22.014 9.883 22.014 22.031c0 12.147-9.875 22.031-22.014 22.031zm261.561-33.437c-4.177 4.18-7.62 8.314-10.513 12.406-3.019-4.115-4.74-9.138-4.74-14.379 0-13.383 10.892-24.27 24.281-24.27 6.742 0 13.042 2.846 17.538 7.55-8.663 4.02-17.507 9.63-26.566 18.693zm21.381-232.197c12.145 0 23.973 2.057 35.09 6.001-6.018 10.93-17.622 18.041-30.556 18.041-13.981 0-26.243-8.241-31.749-20.482 8.766-2.343 17.896-3.56 27.215-3.56zm-175.183 152.641c.343-.109.687-.218 1.031-.327 1.262 3.046 1.928 6.31 1.928 9.682 0 14.008-11.388 25.404-25.385 25.404-8.726 0-16.691-4.476-21.302-11.571 15.62-14.28 29.305-18.621 43.728-23.188zm51.373 251.196c-.47 2.352-1.209 4.605-2.183 6.733-.035.072-.065.147-.098.22-2.319 4.961-5.951 9.212-10.62 12.329-6.729 4.493-14.799 6.094-22.733 4.506-10.093-2.015-18.411-8.947-22.252-18.542-1.558-3.891-5.3-6.286-9.284-6.286-1.053 0-2.123.167-3.173.519-6.914 2.313-14.347 2.781-21.498 1.349-22.625-4.523-37.355-26.61-32.835-49.245 2.982-15.008 13.911-27.186 28.522-31.782 2.56-.805 4.688-2.605 5.908-4.996 1.219-2.391 1.426-5.171.575-7.715-1.614-4.826-1.412-10.051.583-14.745 2.154-5.115 6.173-9.083 11.317-11.173 5.145-2.09 10.796-2.049 15.911.116 10.572 4.476 15.535 16.718 11.054 27.315-1.02 2.429-2.473 4.607-4.321 6.476-1.89 1.912-2.931 4.503-2.888 7.191.042 2.687 1.166 5.245 3.116 7.095 7.132 6.767 11.683 15.854 12.815 25.59.612 5.267 5.216 9.148 10.521 8.828 2.595-.15 5.189.033 7.777.563 16.369 3.25 27.039 19.251 23.786 35.654zm-2.151-48.015c-5.231-3.438-11.182-5.954-17.681-7.244-1.325-.271-2.66-.488-4.002-.65-2.151-8.178-5.963-15.851-11.185-22.513 1.002-1.665 1.885-3.404 2.643-5.21 8.765-20.724-.964-44.723-21.688-53.496-10.04-4.251-21.133-4.332-31.236-.229-10.099 4.103-17.991 11.894-22.209 21.909-2.635 6.201-3.671 12.903-3.084 19.52-.984.477-1.949.986-2.902 1.511-7.204-11.445-12.142-24.237-14.51-37.619 6.761-7.463 10.887-17.357 10.887-28.199 0-8.619-2.61-16.638-7.076-23.314 3.525-10.531 8.738-20.461 15.398-29.379 8.461 10.228 21.199 16.489 34.998 16.489 25.025 0 45.385-20.368 45.385-45.404 0-5.737-1.055-11.305-3.096-16.517 9.108-4.062 18.416-9.778 27.962-19.329 16.595-16.604 21.619-32.491 26.478-47.855 4.936-15.607 9.598-30.348 26.841-47.614 8.318-8.323 17.793-15.065 28.059-20.093 8.398 19.941 28.053 33.455 50.513 33.455 20.798 0 39.404-11.696 48.684-29.549 7.501 4.444 14.496 9.858 20.822 16.187 40.829 40.85 40.829 107.319.003 148.167-17.259 17.254-31.992 21.918-47.589 26.856-.545.173-1.091.346-1.637.519-8.044-12.41-22.006-20.269-37.168-20.269-24.417 0-44.281 19.859-44.281 44.27 0 12.638 5.466 24.587 14.67 32.905-2.347 5.713-4.132 11.349-5.893 16.915-4.935 15.602-9.597 30.338-26.842 47.593-14.203 14.209-31.855 23.898-51.264 28.187zm156.531 39.912c0 17.087-13.891 30.988-30.966 30.988-17.06 0-30.939-13.901-30.939-30.988 0-17.072 13.879-30.96 30.939-30.96 17.074 0 30.966 13.889 30.966 30.96z"/><path d="m91.326 158.27c21.901 0 39.719-17.825 39.719-39.734 0-21.91-17.818-39.735-39.719-39.735-21.885 0-39.691 17.825-39.691 39.735 0 21.909 17.805 39.734 39.691 39.734zm0-59.469c10.873 0 19.719 8.853 19.719 19.735s-8.846 19.734-19.719 19.734c-10.858 0-19.691-8.853-19.691-19.734 0-10.882 8.833-19.735 19.691-19.735z"/><path d="m181.787 67.592c18.62 0 33.769-15.155 33.769-33.782 0-18.643-15.149-33.81-33.769-33.81-18.636 0-33.798 15.167-33.798 33.81 0 18.628 15.162 33.782 33.798 33.782zm0-47.592c7.593 0 13.77 6.195 13.77 13.81 0 7.6-6.177 13.782-13.77 13.782-7.608 0-13.798-6.183-13.798-13.782 0-7.615 6.189-13.81 13.798-13.81z"/><path d="m467.194 362.57c-21.121 0-38.303 17.189-38.303 38.317s17.182 38.317 38.303 38.317c21.12 0 38.302-17.189 38.302-38.317s-17.182-38.317-38.302-38.317zm0 56.635c-10.093 0-18.303-8.217-18.303-18.317s8.211-18.318 18.303-18.318 18.302 8.217 18.302 18.318c.001 10.099-8.21 18.317-18.302 18.317z"/><path d="m262.558 239.14c17.793 0 32.268-14.493 32.268-32.308 0-17.799-14.475-32.279-32.268-32.279-17.808 0-32.296 14.48-32.296 32.279 0 17.815 14.488 32.308 32.296 32.308zm0-44.587c6.765 0 12.268 5.509 12.268 12.28 0 6.787-5.504 12.308-12.268 12.308-6.78 0-12.297-5.521-12.297-12.308.001-6.772 5.517-12.28 12.297-12.28z"/><path d="m460.26 282.805c-2.47 4.94-.468 10.947 4.473 13.416 1.436.718 2.961 1.058 4.464 1.058 3.668 0 7.2-2.026 8.952-5.53l.028-.057c2.47-4.94.453-10.918-4.486-13.388-4.938-2.468-10.96-.439-13.431 4.501z"/></g></g></svg>